<?xml version="1.0" encoding="UTF-8"?>
<!-- Generator: visioncortex VTracer 0.6.2 -->
<svg version="1.1" xmlns="http://www.w3.org/2000/svg" width="1280" height="433">
<path d="M0 0 C1.69246249 -0.00689819 1.69246249 -0.00689819 3.41911614 -0.01393574 C5.2711793 -0.0062204 5.2711793 -0.0062204 7.16065788 0.00165081 C8.4761562 -0.00076361 9.79165451 -0.00317802 11.14701641 -0.0056656 C14.79723062 -0.01207972 18.44733393 -0.00601037 22.09754086 0.00209868 C26.03499074 0.0086759 29.97242823 0.00372703 33.90987968 0.00021648 C41.62457473 -0.00482712 49.33922693 0.00081885 57.05391665 0.01006678 C66.04151292 0.02045278 75.02909994 0.02038051 84.01670109 0.01989421 C100.05931446 0.01939342 116.10190791 0.02855797 132.14451408 0.04307842 C147.70148392 0.05715199 163.25843623 0.06424979 178.81541252 0.06358624 C179.77267904 0.06354628 180.72994556 0.06350632 181.71622016 0.06346516 C182.6718491 0.0634248 183.62747804 0.06338445 184.61206543 0.06334287 C202.32926325 0.06265206 220.04645362 0.06855046 237.76364902 0.07749609 C244.02329599 0.08050733 250.28294158 0.08157506 256.54258919 0.08202839 C264.17938873 0.08271227 271.81617575 0.08720081 279.45296998 0.0963612 C283.34693419 0.1009626 287.24088244 0.10403086 291.13484955 0.10276699 C294.70532244 0.10166437 298.27576016 0.10523623 301.84622572 0.11241551 C303.73767427 0.1150616 305.62912772 0.11288177 307.5205766 0.11048347 C327.9552699 0.16808239 327.9552699 0.16808239 337.37107658 5.24888897 C338.29662346 5.72197491 339.22217033 6.19506084 340.17576408 6.68248272 C348.41538264 11.1447177 354.73271258 16.71650755 361.37107658 23.24888897 C362.67431877 24.51345928 362.67431877 24.51345928 364.00388908 25.80357647 C377.61928265 39.86832296 382.85988648 58.13056189 382.75875664 77.29024029 C382.76683494 79.15925155 382.76683494 79.15925155 382.77507645 81.06602061 C382.78681379 84.48534144 382.78532981 87.90416823 382.77790964 91.32346821 C382.77314609 95.02637838 382.78571575 98.72923818 382.79592705 102.43213177 C382.81305838 109.67115855 382.81396689 116.91009832 382.80871414 124.1491401 C382.80466062 130.03734479 382.80612999 135.9255239 382.8114624 141.81372738 C382.81221082 142.65412034 382.81295925 143.49451331 382.81373035 144.36037273 C382.81526194 146.06803182 382.81680029 147.77569091 382.81834532 149.48334999 C382.83204985 165.47076284 382.82664708 181.45812665 382.8151601 197.44553836 C382.80522979 212.0457437 382.81816855 226.64582228 382.84209429 241.24600808 C382.86652384 256.26776008 382.87608371 271.28945313 382.86944157 286.31122458 C382.86595791 294.73269725 382.86812478 303.15407249 382.8856926 311.57553005 C382.90046291 318.74435182 382.90098728 325.91300752 382.88362169 333.0818262 C382.87514883 336.73340928 382.87287004 340.38469634 382.88827324 344.03626347 C382.95617513 361.36407011 382.894811 376.99893793 374.55857658 392.62388897 C374.21093254 393.29105938 373.8632885 393.95822979 373.50510979 394.64561749 C368.14192246 404.68402803 361.43820839 411.39202752 352.37107658 418.24888897 C351.1297094 419.21181866 351.1297094 419.21181866 349.86326408 420.19420147 C336.27099846 430.29006436 320.7223988 433.72236732 304.03274345 433.63656902 C302.11578792 433.64464733 302.11578792 433.64464733 300.160106 433.65288883 C296.65159976 433.66721321 293.143331 433.66314004 289.63481247 433.65572202 C285.8357683 433.65096 282.0367733 433.66352687 278.23774529 433.67373943 C270.80988638 433.6908742 263.38211226 433.69177848 255.95423874 433.68652653 C249.91205734 433.68247335 243.86990086 433.68394197 237.82772064 433.68927479 C236.53425994 433.69039742 236.53425994 433.69039742 235.21466872 433.69154273 C233.46247936 433.69307433 231.71029001 433.69461267 229.95810065 433.6961577 C213.55194588 433.70986369 197.14583888 433.70445863 180.73968522 433.69297249 C165.7586316 433.68304388 150.77770156 433.69597773 135.796667 433.71990668 C120.38279621 433.74433988 104.96898287 433.75389509 89.55509311 433.74725395 C80.91393649 433.74377087 72.27287483 433.74593327 63.63173294 433.76350498 C56.27519449 433.77827995 48.91881786 433.77879374 41.56228241 433.76143407 C37.81539055 433.75296468 34.06878711 433.75067379 30.32191086 433.76608562 C-4.37562369 433.8986726 -4.37562369 433.8986726 -20.00392342 425.49888897 C-20.6574781 425.16034893 -21.31103279 424.82180889 -21.98439217 424.47301006 C-27.66837899 421.43061968 -33.10500043 417.88156011 -37.62892342 413.24888897 C-37.62892342 412.58888897 -37.62892342 411.92888897 -37.62892342 411.24888897 C-38.19611092 411.02459209 -38.76329842 410.80029522 -39.34767342 410.56920147 C-46.45921778 406.4532734 -51.52613574 397.66859863 -54.62892342 390.24888897 C-54.62892342 389.58888897 -54.62892342 388.92888897 -54.62892342 388.24888897 C-55.28892342 387.91888897 -55.94892342 387.58888897 -56.62892342 387.24888897 C-56.62892342 385.92888897 -56.62892342 384.60888897 -56.62892342 383.24888897 C-57.28892342 382.91888897 -57.94892342 382.58888897 -58.62892342 382.24888897 C-60.75063433 376.7574019 -61.74984949 371.61387001 -61.77431774 365.74325371 C-61.78124238 364.64241265 -61.78816702 363.54157158 -61.7953015 362.4073717 C-61.79784561 361.20331016 -61.80038973 359.99924862 -61.80301094 358.75870037 C-61.80950989 357.47531475 -61.81600884 356.19192914 -61.82270473 354.86965305 C-61.8404669 351.30895059 -61.85193628 347.74825165 -61.86226141 344.18752086 C-61.87191232 341.13275156 -61.88521992 338.07800248 -61.89853037 335.02324726 C-61.94607323 324.0815646 -61.9787694 313.13985316 -62.00782967 302.19810772 C-62.01129104 300.90187223 -62.01129104 300.90187223 -62.01482233 299.57945016 C-62.0602809 282.40744278 -62.0987742 265.23542244 -62.12555218 248.06337547 C-62.1315409 244.28919426 -62.1376266 240.51501322 -62.14381599 236.74083233 C-62.14534898 235.80282254 -62.14688196 234.86481274 -62.14846139 233.89837841 C-62.17414846 218.71949421 -62.23100766 203.54088841 -62.30028129 188.36214723 C-62.37088178 172.76322503 -62.411006 157.16444643 -62.42230171 141.56536704 C-62.42944482 132.81324867 -62.45004658 124.06161379 -62.50532913 115.30965519 C-62.55240257 107.85219607 -62.57198504 100.39529331 -62.55644763 92.937691 C-62.54937557 89.13783931 -62.55487914 85.33917694 -62.59602547 81.5395155 C-62.75807984 65.75178242 -62.80786881 52.5939408 -53.62892342 39.24888897 C-52.37339511 37.16888261 -51.12241206 35.0861153 -49.87892342 32.99888897 C-48.22269277 30.41002359 -46.68025138 28.29946762 -44.48829842 26.13951397 C-42.399123 24.29239567 -42.399123 24.29239567 -41.62892342 21.24888897 C-40.63892342 21.24888897 -39.64892342 21.24888897 -38.62892342 21.24888897 C-38.29892342 20.25888897 -37.96892342 19.26888897 -37.62892342 18.24888897 C-29.46273656 11.52839069 -20.21158742 6.61674466 -10.62892342 2.24888897 C-9.85621137 1.89493783 -9.08349932 1.54098669 -8.28737175 1.17630976 C-5.35291245 0.15260035 -3.10223499 -0.0006928 0 0 Z M-58.62892342 51.24888897 C-57.62892342 53.24888897 -57.62892342 53.24888897 -57.62892342 53.24888897 Z M-59.62892342 54.24888897 C-58.62892342 56.24888897 -58.62892342 56.24888897 -58.62892342 56.24888897 Z M-60.62892342 58.24888897 C-59.62892342 60.24888897 -59.62892342 60.24888897 -59.62892342 60.24888897 Z " fill="#007E7F" transform="translate(61.628923416137695,-0.24888896942138672)"/>
<path d="M0 0 C16.9403382 18.43507393 18.06837965 52.31923467 18.2734375 75.98632812 C17.99966243 80.27667165 15.87902632 82.43685654 13.1875 85.5625 C9.2078805 88.93914685 4.63398548 88.47052926 -0.37890625 88.5234375 C-1.85613121 88.5514881 -3.33334463 88.58015242 -4.81054688 88.609375 C-7.13012586 88.65073012 -9.44948482 88.68763552 -11.76928711 88.71386719 C-14.0146064 88.7414317 -16.25895848 88.7872755 -18.50390625 88.8359375 C-19.19770889 88.83919037 -19.89151154 88.84244324 -20.6063385 88.84579468 C-23.46090926 88.91882431 -25.42641598 89.00224211 -27.81079102 90.65136719 C-33.33424005 99.27296554 -27.80683448 119.89752014 -25.875 129.3125 C-23.28000936 140.61820362 -18.35385816 150.88398599 -13.25 161.25 C-12.40622803 162.9673938 -12.40622803 162.9673938 -11.54541016 164.71948242 C-11.00190918 165.79045166 -10.4584082 166.8614209 -9.8984375 167.96484375 C-9.41294434 168.92382568 -8.92745117 169.88280762 -8.42724609 170.87084961 C-6.79618859 173.43646869 -5.50671764 174.80884186 -2.875 176.3125 C4.91723403 176.18447863 11.76373872 172.97836794 18.90429688 170.10742188 C25.90551001 167.41689313 31.95733032 165.9788457 39.25 168.3125 C46.95192741 173.67036254 51.09477846 181.29530856 55 189.625 C55.76546143 191.23870483 55.76546143 191.23870483 56.54638672 192.88500977 C75.54315311 234.06840881 75.54315311 234.06840881 71.125 249.3125 C66.07995321 257.66835875 56.85798109 259.80465178 47.83251953 262.07666016 C30.98405639 265.79034063 10.8429528 264.40654648 -4.43359375 255.90234375 C-49.9125112 226.28647271 -76.35957764 175.72494495 -87.45483398 123.71972656 C-87.95055608 121.25424017 -88.41993378 118.78577704 -88.875 116.3125 C-89.11863281 115.02988281 -89.36226562 113.74726563 -89.61328125 112.42578125 C-92.61389278 93.21778499 -92.49131398 72.24120475 -87.875 53.3125 C-87.62556641 52.25530762 -87.62556641 52.25530762 -87.37109375 51.17675781 C-84.67973675 40.10730616 -80.39829776 30.249274 -74.875 20.3125 C-74.39289063 19.40371094 -73.91078125 18.49492188 -73.4140625 17.55859375 C-66.64153106 5.99048369 -51.12821549 -0.21367847 -38.6875 -3.5625 C-26.22818107 -6.0996704 -11.25524644 -6.6063403 0 0 Z " fill="#FAFDFF" transform="translate(221.875,93.6875)"/>
<path d="M0 0 C8.25 0.33 16.5 0.66 25 1 C25 37.63 25 74.26 25 112 C4 112 4 112 -1.875 106.1875 C-3.22802734 104.23876953 -3.22802734 104.23876953 -4.0859375 102.5703125 C-5.75166078 99.46217542 -7.56880546 96.51661037 -9.5 93.5625 C-10.32177734 92.2321875 -10.32177734 92.2321875 -11.16015625 90.875 C-13.30836213 87.51814326 -15.60391443 84.29192949 -17.9375 81.0625 C-21.0005759 76.82140614 -23.99580177 72.55717715 -26.875 68.1875 C-30.30188464 62.99439761 -33.84991419 57.89517804 -37.4375 52.8125 C-37.97036621 52.05670654 -38.50323242 51.30091309 -39.05224609 50.5222168 C-41.34786145 47.11495426 -41.34786145 47.11495426 -44 44 C-44.33 66.44 -44.66 88.88 -45 112 C-52.59 112 -60.18 112 -68 112 C-70 110 -70 110 -70.24609566 108.05161095 C-70.24425207 107.24965105 -70.24240849 106.44769115 -70.24050903 105.62142944 C-70.24325836 104.70153732 -70.24600769 103.7816452 -70.24884033 102.83387756 C-70.24164978 101.82183762 -70.23445923 100.80979767 -70.22705078 99.76708984 C-70.22734283 98.7036586 -70.22763489 97.64022736 -70.22793579 96.54457092 C-70.22653835 93.01661116 -70.21095756 89.48886053 -70.1953125 85.9609375 C-70.19158385 83.51999019 -70.18873618 81.07904138 -70.18673706 78.63809204 C-70.17908899 72.2034901 -70.15943041 65.76897799 -70.1373291 59.33441162 C-70.11689594 52.77243261 -70.10774076 46.21043913 -70.09765625 39.6484375 C-70.07618564 26.7655866 -70.04241826 13.88279807 -70 1 C-66.30286446 0.80096799 -62.60711473 0.68075964 -58.90625 0.57421875 C-57.8637207 0.51713745 -56.82119141 0.46005615 -55.74707031 0.40124512 C-48.11468955 0.23644133 -48.11468955 0.23644133 -44.85793972 2.46730423 C-42.10694928 5.32082676 -39.819425 8.41912929 -38.06640625 11.984375 C-36.35863036 15.31106944 -34.49376877 18.433599 -32.4375 21.5625 C-31.89609375 22.43519531 -31.3546875 23.30789062 -30.796875 24.20703125 C-28.69970066 27.46676963 -26.45804498 30.6102824 -24.1875 33.75 C-20.62144194 38.68243425 -17.17165998 43.67432148 -13.8125 48.75 C-9.43316646 55.36179936 -9.43316646 55.36179936 -5 61.9375 C-4.46375 62.73027344 -3.9275 63.52304688 -3.375 64.33984375 C-2.694375 65.16162109 -2.694375 65.16162109 -2 66 C-1.34 66 -0.68 66 0 66 C0 44.22 0 22.44 0 0 Z " fill="#007E7F" transform="translate(1128,75)"/>
<path d="M0 0 C0.66257812 0.16757813 1.32515625 0.33515625 2.0078125 0.5078125 C13.90338875 3.97552661 25.95707884 13.39046743 32.07421875 24.1953125 C34.43908362 28.80530226 35.39206768 32.83257529 36 38 C29.63862622 41.18068689 18.80180301 40.4485067 12 39 C8.97807999 36.44669657 7.93158139 34.37194319 6.36328125 30.77734375 C4.18155861 26.33263086 0.52436859 24.64667832 -4 23 C-12.25650311 21.08308805 -18.52480505 22.11595492 -26 26 C-34.58919567 32.87135653 -38.60247839 43.14483826 -39.8125 53.8125 C-40.48660598 65.66178504 -37.64778731 76.1551852 -31 86 C-22.72531943 92.22690609 -16.29606921 92.75840501 -6.23828125 91.546875 C-2.81963133 91.06294073 0.59142529 90.55008699 4 90 C4.0825 89.38125 4.165 88.7625 4.25 88.125 C4.62125 87.073125 4.62125 87.073125 5 86 C5.64453125 85.70351562 6.2890625 85.40703125 6.953125 85.1015625 C9.26694253 84.13791107 9.26694253 84.13791107 10.046875 81.3984375 C10.27890625 80.40070313 10.5109375 79.40296875 10.75 78.375 C11.1625 76.60125 11.575 74.8275 12 73 C1.11 72.505 1.11 72.505 -10 72 C-10 66.06 -10 60.12 -10 54 C5.51 54 21.02 54 37 54 C37 85.68304668 37 85.68304668 28 98 C27.54753906 98.64582031 27.09507813 99.29164063 26.62890625 99.95703125 C20.14987563 108.38160647 9.97203441 112.81731801 -0.29296875 114.55859375 C-14.78807852 116.28456572 -30.597311 115.5035814 -43 107 C-55.70222156 96.25332157 -64.75692937 82.44142759 -66.20874023 65.57495117 C-66.74800557 51.9008173 -65.80874431 41.39105021 -60 29 C-59.66355469 27.99839844 -59.32710937 26.99679688 -58.98046875 25.96484375 C-55.10305575 14.98141488 -44.58419621 8.66498569 -34.6875 3.4375 C-24.42757669 -1.24080932 -11.03813848 -3.46912924 0 0 Z M-20 0 C-16 1 -16 1 -16 1 Z M-64 42 C-63 45 -63 45 -63 45 Z M-65 48 C-65 54.6 -65 61.2 -65 68 C-64.67 68 -64.34 68 -64 68 C-64 61.4 -64 54.8 -64 48 C-64.33 48 -64.66 48 -65 48 Z M-17 93 C-13 94 -13 94 -13 94 Z M-10 93 C-10 93.33 -10 93.66 -10 94 C-8.35 94 -6.7 94 -5 94 C-5 93.67 -5 93.34 -5 93 C-6.65 93 -8.3 93 -10 93 Z " fill="#007E7F" transform="translate(1235,74)"/>
<path d="M0 0 C0.75474609 -0.00386719 1.50949219 -0.00773437 2.28710938 -0.01171875 C14.10598555 0.00910746 23.76770843 4.78426398 32.28125 12.84375 C35.52329659 16.27374132 38.51955245 19.53360713 40.1875 24 C40.42984375 24.61617187 40.6721875 25.23234375 40.921875 25.8671875 C41.4375 28.125 41.4375 28.125 41.4375 35.125 C33.8475 35.125 26.2575 35.125 18.4375 35.125 C18.4375 34.135 18.4375 33.145 18.4375 32.125 C17.7775 32.125 17.1175 32.125 16.4375 32.125 C16.045625 31.196875 15.65375 30.26875 15.25 29.3125 C13.01878925 25.38864662 10.84683743 23.82896279 6.5390625 22.5703125 C-0.29760974 21.12164961 -5.52577475 22.1063459 -11.71484375 25.25 C-13.5625 26.125 -13.5625 26.125 -15.5625 26.125 C-17.35471238 30.55281881 -17.96858814 33.50499611 -16.5625 38.125 C-13.37143353 42.84222869 -7.80125753 44.48887152 -2.5625 46.125 C0.12132578 46.63794964 2.70685709 46.88959975 5.4375 47.125 C15.43869974 49.21827436 25.44474788 53.76603689 33.4375 60.125 C33.4375 60.785 33.4375 61.445 33.4375 62.125 C34.30375 62.4034375 34.30375 62.4034375 35.1875 62.6875 C39.39910452 65.37824734 40.98448308 69.92450515 42.6875 74.4375 C44.53170912 83.50486149 43.75916694 92.14174097 39.21875 100.3203125 C33.20367097 109.10901131 24.98210473 112.97403522 14.8203125 115.4375 C0.15024982 118.11098423 -16.19659919 117.05626682 -29.5625 110.125 C-36.28635382 105.43143952 -43.43286076 98.25634981 -45.5625 90.125 C-46.10738528 86.7974967 -46.63420371 83.50104965 -46.5625 80.125 C-44.11899051 77.68149051 -43.44933648 77.86872884 -40.09765625 77.859375 C-39.21529297 77.85679687 -38.33292969 77.85421875 -37.42382812 77.8515625 C-36.50021484 77.85929687 -35.57660156 77.86703125 -34.625 77.875 C-33.70525391 77.86726563 -32.78550781 77.85953125 -31.83789062 77.8515625 C-30.51241211 77.85542969 -30.51241211 77.85542969 -29.16015625 77.859375 C-28.35070557 77.86163086 -27.54125488 77.86388672 -26.70727539 77.86621094 C-24.5625 78.125 -24.5625 78.125 -21.5625 80.125 C-20.859375 82.1484375 -20.859375 82.1484375 -20.3125 84.5 C-19.25191404 87.93585661 -18.42655403 89.74822637 -15.3125 91.625 C-6.74530714 95.56805948 3.3651397 94.44461604 12.4375 93.125 C12.9325 91.64 12.9325 91.64 13.4375 90.125 C14.0975 90.125 14.7575 90.125 15.4375 90.125 C16.79234702 86.06045893 16.95511755 82.37409933 16.4375 78.125 C13.57124535 73.30448082 7.55206508 71.73073555 2.4375 70.125 C0.06313936 69.52982411 -2.31865162 68.97369157 -4.70288086 68.41943359 C-16.99965789 65.55950397 -30.45707592 61.89553974 -38.625 51.5 C-43.35073661 43.26807172 -45.90391752 36.62601215 -43.5625 27.125 C-41.32761059 21.11391814 -38.52354388 16.27843208 -33.5625 12.125 C-33.01078125 11.64546875 -32.4590625 11.1659375 -31.890625 10.671875 C-22.48674135 2.97778838 -11.92273056 -0.06140462 0 0 Z M-8.5625 1.125 C-4.5625 2.125 -4.5625 2.125 -4.5625 2.125 Z M-41.5625 24.125 C-40.5625 26.125 -40.5625 26.125 -40.5625 26.125 Z M-42.5625 27.125 C-41.5625 30.125 -41.5625 30.125 -41.5625 30.125 Z M-43.5625 33.125 C-43.5625 34.775 -43.5625 36.425 -43.5625 38.125 C-43.2325 38.125 -42.9025 38.125 -42.5625 38.125 C-42.5625 36.475 -42.5625 34.825 -42.5625 33.125 C-42.8925 33.125 -43.2225 33.125 -43.5625 33.125 Z " fill="#007E7F" transform="translate(545.5625,72.875)"/>
<path d="M0 0 C10.89 0 21.78 0 33 0 C33.99 3.3 34.98 6.6 36 10 C37.48886352 13.42606024 37.48886352 13.42606024 39.02822876 16.82949829 C40.58438295 20.30524978 41.81058912 23.87970954 43.04296875 27.48046875 C43.33229782 28.31636032 43.62162689 29.15225189 43.91972351 30.01347351 C44.95261422 33.00691302 45.97718074 36.00310418 47 39 C47.41316467 40.20996643 47.82632935 41.41993286 48.25201416 42.66656494 C51.11984541 51.07185952 53.97159651 59.48256581 56.81762695 67.89526367 C58.07425244 71.60963566 59.33336757 75.32315863 60.59309101 79.0364809 C61.5748283 81.93152678 62.55503657 84.82708862 63.53481102 87.7227993 C63.99873967 89.09319896 64.46318654 90.46342331 64.92818642 91.83345985 C65.57521496 93.74040388 66.21990274 95.64814163 66.86450195 97.5559082 C67.22977493 98.63475784 67.59504791 99.71360748 67.97138977 100.82514954 C69.06431193 104.1985016 70.04469243 107.58544287 71 111 C66.72952167 111.14486019 62.45967167 111.23392616 58.1875 111.3125 C56.97255859 111.35439453 55.75761719 111.39628906 54.50585938 111.43945312 C53.34248047 111.45556641 52.17910156 111.47167969 50.98046875 111.48828125 C49.37014771 111.52755737 49.37014771 111.52755737 47.72729492 111.56762695 C45 111 45 111 43.16137695 108.66479492 C41.8966531 105.76286915 41.47452348 103.11829718 41 100 C40.34 99.01 39.68 98.02 39 97 C38.66666667 95 38.33333333 93 38 91 C37.34 90.01 36.68 89.02 36 88 C36 87.34 36 86.68 36 86 C23.13 86.33 10.26 86.66 -3 87 C-3.99 90.96 -4.98 94.92 -6 99 C-7.32 102.96 -8.64 106.92 -10 111 C-18.58 111 -27.16 111 -36 111 C-35.00033973 103.00271781 -33.05486764 96.01058156 -30.5390625 88.4140625 C-30.3072226 87.71284271 -30.07538269 87.01162292 -29.83651733 86.28915405 C-29.34822435 84.81488918 -28.85908667 83.34090383 -28.36914062 81.8671875 C-27.62978745 79.63942517 -26.89687706 77.40960779 -26.1640625 75.1796875 C-23.99720283 68.63120741 -21.80045112 62.16932914 -18.87597656 55.91113281 C-17.40455267 52.70090254 -16.22992723 49.39299446 -15.0625 46.0625 C-14.68073608 44.98222534 -14.68073608 44.98222534 -14.29125977 43.88012695 C-12.18393789 37.79325676 -10.48454026 31.62781093 -8.83105469 25.40527344 C-7.3501227 19.95285988 -5.45588827 14.82646443 -3.11328125 9.67578125 C-1.81178564 6.54762514 -0.93078386 3.25774352 0 0 Z M-7 23 C-6 25 -6 25 -6 25 Z M-8 26 C-7 28 -7 28 -7 28 Z M16 27 C15.74605469 27.90621094 15.49210938 28.81242187 15.23046875 29.74609375 C13.3066063 36.55526985 11.30370593 43.30878142 9 50 C8.09928786 52.62345977 7.20366868 55.24831542 6.3125 57.875 C6.08570557 58.53040771 5.85891113 59.18581543 5.62524414 59.86108398 C4.66039048 62.71052724 4 64.96807206 4 68 C12.91 68 21.82 68 31 68 C29.515 63.545 29.515 63.545 28 59 C27.20780124 56.07062504 26.47048722 53.13418529 25.74609375 50.1875 C25.22423396 47.81954334 25.22423396 47.81954334 23 47 C23.33 46.01 23.66 45.02 24 44 C23.34 44 22.68 44 22 44 C22 42.02 22 40.04 22 38 C21.34 38 20.68 38 20 38 C20.33 37.01 20.66 36.02 21 35 C20.34 35 19.68 35 19 35 C19.33 34.01 19.66 33.02 20 32 C19.34 32 18.68 32 18 32 C18 30.35 18 28.7 18 27 C17.34 27 16.68 27 16 27 Z M-9 29 C-8 31 -8 31 -8 31 Z M-29 87 C-28 89 -28 89 -28 89 Z M-30 90 C-29 92 -29 92 -29 92 Z " fill="#007E7F" transform="translate(764,76)"/>
<path d="M0 0 C7.92 0 15.84 0 24 0 C24.0093457 2.25513428 24.01869141 4.51026855 24.02832031 6.83374023 C24.06218525 14.30972398 24.11778677 21.78543444 24.18390274 29.261199 C24.22330346 33.79092736 24.25552807 38.32046347 24.27099609 42.8503418 C24.28621173 47.22724031 24.32074345 51.60361004 24.36830902 55.98027229 C24.38307246 57.64464772 24.39103811 59.30909866 24.39188385 60.97353935 C24.18473741 75.05825969 24.18473741 75.05825969 30.90234375 86.97265625 C38.15117883 90.85447004 45.38253909 91.11617301 53.3984375 89.5234375 C58.17971128 88.0029558 62.1976759 85.20833446 65 81 C66.08733237 76.83870991 66.16981062 72.72969827 66.20532227 68.45581055 C66.21522186 67.71380905 66.22512146 66.97180756 66.23532104 66.20732117 C66.26678034 63.76715225 66.29163154 61.32696391 66.31640625 58.88671875 C66.33698924 57.18992115 66.35798606 55.49312852 66.37937927 53.79634094 C66.43446104 49.33958982 66.48393136 44.8827935 66.53222656 40.42596436 C66.5825433 35.87443031 66.63817617 31.32296156 66.69335938 26.77148438 C66.80077091 17.84771007 66.90176182 8.92388001 67 0 C74.92 0 82.84 0 91 0 C92.5152092 3.0304184 92.16482819 6.17848601 92.17700195 9.50390625 C92.18357315 10.27817459 92.19014435 11.05244293 92.19691467 11.85017395 C92.21667387 14.42095027 92.22832041 16.9916679 92.23828125 19.5625 C92.24235678 20.4418219 92.2464323 21.3211438 92.25063133 22.22711182 C92.27151024 26.88757086 92.28580008 31.54800037 92.29516602 36.20849609 C92.30619188 41.00555692 92.34054194 45.80214892 92.38033772 50.5990448 C92.40659347 54.30015882 92.41486611 58.00116312 92.41844749 61.70236206 C92.42329589 63.46926006 92.43485963 65.23615373 92.45348549 67.00296021 C92.5846969 80.28241158 91.4472635 90.8341527 82 101 C70.82032194 111.86851405 56.74371237 113.41753071 41.87890625 113.2109375 C28.3169261 112.78573123 17.19066116 108.25334711 7.82421875 98.3359375 C0.53899785 89.00711074 -1.24080599 79.65450784 -1.02172852 68.11523438 C-1.0073172 67.00157501 -1.0073172 67.00157501 -0.99261475 65.86541748 C-0.95995762 63.44142142 -0.9195017 61.01762496 -0.87890625 58.59375 C-0.85457247 56.90125201 -0.83073061 55.20874688 -0.80735779 53.51623535 C-0.74484072 49.08406376 -0.67568422 44.65202022 -0.60510254 40.2199707 C-0.53412472 35.68837259 -0.46948462 31.15668445 -0.40429688 26.625 C-0.27570251 17.74989814 -0.13950126 8.87493713 0 0 Z " fill="#007E7F" transform="translate(948,76)"/>
<path d="M0 0 C0.495 0.495 0.495 0.495 1 1 C1.928125 1.061875 2.85625 1.12375 3.8125 1.1875 C15.89134085 2.84586544 25.86334243 11.77973177 33.375 20.8125 C37.80639722 27.08191993 40 34.39187622 40 42 C32.08 42 24.16 42 16 42 C16 41.01 16 40.02 16 39 C15.34 39 14.68 39 14 39 C13.7525 38.29875 13.505 37.5975 13.25 36.875 C10.59154954 30.76056394 7.99231929 27.53550717 2 24.76171875 C-5.62965802 21.85589197 -12.00787249 22.87723279 -19.484375 25.80859375 C-26.59009121 29.1738786 -30.74242075 36.72744845 -33.75 43.75 C-37.47168183 54.65984444 -36.55323924 67.26994597 -32.25 77.875 C-29.47037355 83.45476675 -26.21779287 87.69541596 -20.8125 90.875 C-12.69620759 93.26997153 -4.0411732 94.11528895 4 91 C10.30569481 87.11792258 12.84907086 82.93077169 15 76 C17.36794003 74.81602999 18.82581309 74.87086999 21.46484375 74.8671875 C22.34720703 74.86589844 23.22957031 74.86460937 24.13867188 74.86328125 C25.06228516 74.86714844 25.98589844 74.87101562 26.9375 74.875 C27.85724609 74.87113281 28.77699219 74.86726563 29.72460938 74.86328125 C31.05008789 74.86521484 31.05008789 74.86521484 32.40234375 74.8671875 C33.61651978 74.86887939 33.61651978 74.86887939 34.85522461 74.87060547 C37 75 37 75 40 76 C39.2235826 88.22857398 34.17197066 97.29908504 25.3125 105.6875 C13.22469501 115.77218302 -1.88086495 117.07290024 -17 116 C-31.69745862 114.10909889 -43.03105955 105.86228398 -51.9375 94.375 C-53.98001742 91.03269876 -54.5445888 88.82545405 -55 85 C-55.66 84.67 -56.32 84.34 -57 84 C-61.90453992 75.76037293 -61.23858632 66.68812312 -61.3125 57.375 C-61.34150391 56.18003906 -61.37050781 54.98507812 -61.40039062 53.75390625 C-61.46075503 45.18216048 -60.00402687 38.01581543 -57 30 C-56.66137939 29.09040527 -56.32275879 28.18081055 -55.97387695 27.24365234 C-54.76105446 24.44950876 -53.2193388 23.09937454 -51 21 C-50.53980469 20.42378906 -50.07960938 19.84757812 -49.60546875 19.25390625 C-37.02232808 3.54794235 -19.33890245 -1.4925283 0 0 Z M-54 26 C-53 28 -53 28 -53 28 Z M-58 36 C-57 38 -57 38 -57 38 Z M-59 40 C-58 42 -58 42 -58 42 Z M-60 45 C-59 48 -59 48 -59 48 Z M-59 76 C-58 78 -58 78 -58 78 Z M15 78 C16 80 16 80 16 80 Z " fill="#007E7F" transform="translate(562,257)"/>
<path d="M0 0 C9.00376912 10.06785093 9.49649691 21.80143929 8.90966797 34.62158203 C8.52074053 39.30761057 7.20094086 42.96657383 4.71875 46.921875 C4.23277344 47.70691406 3.74679687 48.49195313 3.24609375 49.30078125 C-3.03839593 58.31894965 -11.28044862 62.38839029 -21.921875 64.3984375 C-31.27942249 65.69430778 -40.86581433 65.65739647 -50.28125 65.921875 C-50.61125 77.141875 -50.94125 88.361875 -51.28125 99.921875 C-59.20125 99.921875 -67.12125 99.921875 -75.28125 99.921875 C-75.28125 63.291875 -75.28125 26.661875 -75.28125 -11.078125 C-13.32555995 -12.34252684 -13.32555995 -12.34252684 0 0 Z M-51.28125 8.921875 C-51.28125 20.801875 -51.28125 32.681875 -51.28125 44.921875 C-47.630625 44.839375 -43.98 44.756875 -40.21875 44.671875 C-39.08171631 44.65608398 -37.94468262 44.64029297 -36.77319336 44.62402344 C-30.42720034 44.41202543 -26.48359965 43.60746331 -21.28125 39.921875 C-20.683125 39.509375 -20.085 39.096875 -19.46875 38.671875 C-15.79871489 33.2634022 -15.32371329 25.23338044 -16.28125 18.921875 C-18.02704318 14.26938049 -21.07718249 11.66119689 -25.46875 9.484375 C-32.15945045 7.10861794 -44.783153 5.6728265 -51.28125 8.921875 Z " fill="#007E7F" transform="translate(722.28125,87.078125)"/>
<path d="M0 0 C24.75 0 49.5 0 75 0 C75 6.27 75 12.54 75 19 C73.49058838 19.02505615 71.98117676 19.0501123 70.42602539 19.07592773 C64.84813326 19.16980321 59.27037148 19.27007164 53.69262695 19.37231445 C51.27436361 19.41573878 48.8560681 19.45740812 46.43774414 19.49731445 C42.97011604 19.55483603 39.50265097 19.61858187 36.03515625 19.68359375 C34.94662857 19.70030624 33.85810089 19.71701874 32.73658752 19.73423767 C31.73562546 19.75418289 30.73466339 19.77412811 29.70336914 19.79467773 C28.81734512 19.81022202 27.93132111 19.8257663 27.01844788 19.84178162 C25.00362459 19.77981325 25.00362459 19.77981325 24 21 C23.84259395 22.70563778 23.74906608 24.41727244 23.68359375 26.12890625 C23.64169922 27.16337891 23.59980469 28.19785156 23.55664062 29.26367188 C23.51732422 30.35228516 23.47800781 31.44089844 23.4375 32.5625 C23.39431641 33.65498047 23.35113281 34.74746094 23.30664062 35.87304688 C23.20017932 38.58189564 23.09816484 41.29083992 23 44 C23.55710159 43.99555878 24.11420319 43.99111755 24.68818665 43.98654175 C30.47919147 43.94234265 36.27014849 43.91214786 42.0612793 43.89013672 C44.22340847 43.88007049 46.385524 43.86641646 48.54760742 43.84912109 C51.65286625 43.82490022 54.7579453 43.81352319 57.86328125 43.8046875 C58.83211746 43.79436493 59.80095367 43.78404236 60.79914856 43.77340698 C61.6998558 43.77325592 62.60056305 43.77310486 63.52856445 43.77294922 C64.71770195 43.76628738 64.71770195 43.76628738 65.93086243 43.75949097 C68 44 68 44 71 46 C71.34057617 47.97119141 71.34057617 47.97119141 71.29296875 50.3515625 C71.28330078 51.20234375 71.27363281 52.053125 71.26367188 52.9296875 C71.23853516 53.81914062 71.21339844 54.70859375 71.1875 55.625 C71.16719727 56.97078125 71.16719727 56.97078125 71.14648438 58.34375 C71.11106925 60.56309789 71.06168461 62.78125188 71 65 C70.42592911 65.01030746 69.85185822 65.02061493 69.26039124 65.03123474 C63.30734338 65.13907434 57.35445385 65.25368977 51.40161133 65.37231445 C49.17736104 65.41573588 46.95307585 65.45740545 44.72875977 65.49731445 C41.53911805 65.55484306 38.3496532 65.61858684 35.16015625 65.68359375 C34.15912369 65.70030624 33.15809113 65.71701874 32.12672424 65.73423767 C31.20584518 65.75418289 30.28496613 65.77412811 29.33618164 65.79467773 C28.52121719 65.81022202 27.70625275 65.8257663 26.86659241 65.84178162 C24.98590881 65.79913863 24.98590881 65.79913863 24 67 C23.84259395 68.70563778 23.74906608 70.41727244 23.68359375 72.12890625 C23.64169922 73.16337891 23.59980469 74.19785156 23.55664062 75.26367188 C23.51732422 76.35228516 23.47800781 77.44089844 23.4375 78.5625 C23.39431641 79.65498047 23.35113281 80.74746094 23.30664062 81.87304688 C23.20017932 84.58189564 23.09816484 87.29083992 23 90 C23.62196259 89.99555878 24.24392517 89.99111755 24.88473511 89.98654175 C31.34061391 89.9423976 37.79645005 89.91217082 44.25244141 89.89013672 C46.66391744 89.88006046 49.07538122 89.86639919 51.48681641 89.84912109 C54.94697085 89.8249441 58.4069642 89.81353331 61.8671875 89.8046875 C62.95055389 89.79436493 64.03392029 89.78404236 65.15011597 89.77340698 C66.1510025 89.77325592 67.15188904 89.77310486 68.18310547 89.77294922 C69.06690887 89.768508 69.95071228 89.76406677 70.86129761 89.75949097 C73 90 73 90 75 92 C75 98.27 75 104.54 75 111 C50.25 111 25.5 111 0 111 C0 74.37 0 37.74 0 0 Z " fill="#007F80" transform="translate(619,260)"/>
<path d="M0 0 C13.365 0.495 13.365 0.495 27 1 C25.53887548 5.38337356 24.2776395 8.58206277 22.05859375 12.4921875 C21.18968506 14.03265747 21.18968506 14.03265747 20.30322266 15.60424805 C19.37968994 17.22327026 19.37968994 17.22327026 18.4375 18.875 C17.80634277 19.99108643 17.17518555 21.10717285 16.52490234 22.25708008 C15.26295161 24.48813806 13.99899395 26.7180622 12.73291016 28.94677734 C10.8801555 32.21115459 9.04127507 35.48304331 7.20654297 38.75756836 C4.10453947 44.29285902 0.96940424 49.80836579 -2.1875 55.3125 C-10.32646769 68.53677493 -10.32646769 68.53677493 -13.31640625 83.2890625 C-13.33718735 84.10748627 -13.35796844 84.92591003 -13.37937927 85.76913452 C-13.44484812 88.38766966 -13.50374726 91.00630639 -13.5625 93.625 C-13.60568776 95.39844807 -13.64930214 97.17188581 -13.69335938 98.9453125 C-13.80052676 103.29677046 -13.90180169 107.64833077 -14 112 C-17.79160297 112.05786668 -21.58309311 112.09355054 -25.375 112.125 C-26.99535156 112.15013672 -26.99535156 112.15013672 -28.6484375 112.17578125 C-29.6796875 112.18222656 -30.7109375 112.18867188 -31.7734375 112.1953125 C-33.20308838 112.21102295 -33.20308838 112.21102295 -34.66162109 112.22705078 C-37 112 -37 112 -39 110 C-39.06281747 107.30226501 -39.01145263 104.69417936 -38.88671875 102.00390625 C-38.28628083 79.55362002 -40.05823489 63.98024591 -53.29833984 45.41137695 C-58 38.74878049 -58 38.74878049 -58 35 C-58.66 35 -59.32 35 -60 35 C-60.42297363 34.18378174 -60.42297363 34.18378174 -60.85449219 33.35107422 C-62.14942954 30.85717972 -63.44966792 28.36608561 -64.75 25.875 C-65.1934375 25.0190625 -65.636875 24.163125 -66.09375 23.28125 C-68.01898147 19.60066043 -69.92761766 15.98932947 -72.28125 12.5625 C-74.03368316 9.94978147 -74.6356412 8.09704984 -75 5 C-75.66 5 -76.32 5 -77 5 C-77.33 4.01 -77.66 3.02 -78 2 C-77 1 -77 1 -74.40795898 0.88647461 C-73.28204346 0.89171143 -72.15612793 0.89694824 -70.99609375 0.90234375 C-69.78115234 0.90556641 -68.56621094 0.90878906 -67.31445312 0.91210938 C-66.03505859 0.92048828 -64.75566406 0.92886719 -63.4375 0.9375 C-62.15423828 0.94201172 -60.87097656 0.94652344 -59.54882812 0.95117188 C-56.36583978 0.96300455 -53.18294238 0.97948932 -50 1 C-49.75991211 1.49064941 -49.51982422 1.98129883 -49.27246094 2.48681641 C-44.22040458 12.7786584 -39.02222924 22.98028949 -33.5625 33.0625 C-33.05493164 34.00754395 -32.54736328 34.95258789 -32.02441406 35.92626953 C-31.54327148 36.80782715 -31.06212891 37.68938477 -30.56640625 38.59765625 C-30.14302979 39.37633057 -29.71965332 40.15500488 -29.28344727 40.95727539 C-28.03487548 42.94449246 -26.72631613 44.42155494 -25 46 C-23.91045249 44.19122871 -22.8287237 42.37774724 -21.75 40.5625 C-21.14671875 39.55316406 -20.5434375 38.54382813 -19.921875 37.50390625 C-18.48952221 34.89248257 -17.25619887 32.38134095 -16.078125 29.66015625 C-14.00519491 24.89251758 -11.55920354 20.39625959 -9 15.875 C-8.57460938 15.11574219 -8.14921875 14.35648438 -7.7109375 13.57421875 C-5.16433634 9.03564429 -2.58210511 4.51868394 0 0 Z " fill="#007E7F" transform="translate(908,75)"/>
<path d="M0 0 C7.59 0.33 15.18 0.66 23 1 C23 30.7 23 60.4 23 91 C37.85 91 52.7 91 68 91 C69.485 91.99 69.485 91.99 71 93 C71 99.27 71 105.54 71 112 C35.855 112.495 35.855 112.495 0 113 C-0.28967473 85.08872524 -0.28967473 85.08872524 -0.40429688 73.23632812 C-0.4826891 65.13318665 -0.56205508 57.03006523 -0.64819336 48.92700195 C-0.71759573 42.39779654 -0.78177377 35.86855215 -0.84269524 29.33926201 C-0.86686311 26.84204797 -0.89281342 24.34485055 -0.92053413 21.84767342 C-0.95891476 18.36340056 -0.99108813 14.87912366 -1.02172852 11.39477539 C-1.03467453 10.35108795 -1.04762054 9.30740051 -1.06095886 8.23208618 C-1.06799835 7.28832626 -1.07503784 6.34456635 -1.08229065 5.37220764 C-1.09058679 4.54720292 -1.09888292 3.7221982 -1.10743046 2.87219334 C-1 1 -1 1 0 0 Z " fill="#007F80" transform="translate(800,259)"/>
<path d="M0 0 C7.59 0 15.18 0 23 0 C23 29.7 23 59.4 23 90 C38.04865548 89.92082332 38.04865548 89.92082332 53.09716797 89.81982422 C54.97883885 89.81398493 56.86051225 89.80888804 58.7421875 89.8046875 C60.21667358 89.7893396 60.21667358 89.7893396 61.72094727 89.77368164 C62.65463135 89.77343994 63.58831543 89.77319824 64.55029297 89.77294922 C65.3630368 89.768508 66.17578064 89.76406677 67.01315308 89.75949097 C69 90 69 90 71 92 C71 98.27 71 104.54 71 111 C35.855 111.495 35.855 111.495 0 112 C0 75.04 0 38.08 0 0 Z " fill="#007F80" transform="translate(713,260)"/>
<path d="M0 0 C7.92 0.33 15.84 0.66 24 1 C24 37.63 24 74.26 24 112 C16.08 112 8.16 112 0 112 C-1.1770506 109.6458988 -1.12574785 108.25252598 -1.12698364 105.62815857 C-1.13121338 104.25048813 -1.13121338 104.25048813 -1.13552856 102.84498596 C-1.13350433 101.83451706 -1.1314801 100.82404816 -1.12939453 99.78295898 C-1.13114685 98.72113403 -1.13289917 97.65930908 -1.13470459 96.56530762 C-1.13911955 93.04221989 -1.13618656 89.51918202 -1.1328125 85.99609375 C-1.13348559 83.55754079 -1.13445566 81.11898791 -1.13571167 78.68043518 C-1.13718812 73.56502647 -1.13503558 68.4496352 -1.13037109 63.33422852 C-1.12467083 56.76080915 -1.12795504 50.18743059 -1.13394356 43.61401272 C-1.13754802 38.5776183 -1.13641117 33.54123364 -1.13381577 28.50483894 C-1.13314633 26.08021096 -1.13397548 23.65558209 -1.13629532 21.23095512 C-1.13882028 17.84982818 -1.13498359 14.46876839 -1.12939453 11.08764648 C-1.13141876 10.07515335 -1.13344299 9.06266022 -1.13552856 8.01948547 C-1.13129883 6.64604477 -1.13129883 6.64604477 -1.12698364 5.24485779 C-1.12660662 4.44457374 -1.12622959 3.64428968 -1.12584114 2.8197546 C-1 1 -1 1 0 0 Z " fill="#007F80" transform="translate(604,75)"/>
<path d="M0 0 C10.84024224 6.08153051 19.2268373 14.53030218 25.77734375 25.0078125 C26.29941406 25.77480469 26.82148438 26.54179687 27.359375 27.33203125 C36.90658506 41.95497324 39.6100794 59.52926842 37.28125 76.65625 C35.57022001 84.795726 32.50680557 91.59868186 28.15234375 98.6328125 C23.93795443 101.07272211 19.4894904 100.77985913 14.77734375 100.0078125 C10.85191627 98.30957792 8.46842663 96.1596173 6.27734375 92.5078125 C5.24137046 87.32794605 7.29938064 83.70540324 9.7421875 79.265625 C14.22644503 69.48486707 14.52462832 56.59354976 10.8828125 46.4375 C5.41933335 34.42942921 -1.61628535 25.67387812 -12.0859375 17.76953125 C-14.8795254 15.46622569 -16.11520542 13.81369369 -16.59765625 10.1953125 C-16.12274606 6.15857586 -14.78022748 4.13373289 -12.22265625 1.0078125 C-8.34795877 -1.83363232 -4.37121225 -1.95129685 0 0 Z " fill="#FAFDFF" transform="translate(307.22265625,159.9921875)"/>
<path d="M0 0 C9.21940201 5.47440875 15.47475518 14.52454677 18.4140625 24.78515625 C20.04466965 33.73175416 20.25036805 42.81410598 16 51 C14.19022429 53.43579876 13.33088041 53.94270469 10.29296875 54.46875 C0.86779241 54.56359454 0.86779241 54.56359454 -2.625 51.9375 C-5.30777402 48.61933213 -6.30093725 46.19437651 -7 42 C-6.67 41.01 -6.34 40.02 -6 39 C-5.08943913 31.32362608 -5.64092063 26.13479977 -10.39453125 19.9375 C-10.92433594 19.298125 -11.45414062 18.65875 -12 18 C-14.3974619 14.93626009 -15.81055703 12.97830233 -16 9 C-14.71043118 5.05069549 -13.13672376 2.78040442 -9.6875 0.5625 C-6.1124789 -1.2325211 -3.86076261 -1.31430216 0 0 Z " fill="#FAFDFF" transform="translate(288,187)"/>
<path d="M0 0 C1.31238144 0.00222061 2.62476288 0.00444122 3.97691345 0.00672913 C4.6988237 0.0065831 5.42073395 0.00643707 6.16452026 0.00628662 C8.56156879 0.00698583 10.95854054 0.01477857 13.35557556 0.02259827 C15.0132442 0.02446242 16.67091338 0.02588633 18.32858276 0.02688599 C22.69996145 0.03071139 27.07130712 0.04054186 31.44267273 0.05158997 C35.89996392 0.0618036 40.35726043 0.0663835 44.81455994 0.07142639 C53.56652824 0.08216412 62.31846968 0.0992408 71.07041931 0.12025452 C71.07041931 0.45025452 71.07041931 0.78025452 71.07041931 1.12025452 C46.98041931 1.45025452 22.89041931 1.78025452 -1.92958069 2.12025452 C-2.25958069 38.09025452 -2.58958069 74.06025452 -2.92958069 111.12025452 C-3.25958069 111.12025452 -3.58958069 111.12025452 -3.92958069 111.12025452 C-3.95291089 96.79531025 -3.97049405 82.47036892 -3.98139286 68.14540958 C-3.98662243 61.49451922 -3.99372141 54.84364666 -4.00502014 48.19276428 C-4.0158464 41.78022575 -4.02185696 35.36769948 -4.02445793 28.95515251 C-4.02631265 26.50261174 -4.02993416 24.05007167 -4.03531075 21.59753609 C-4.0425177 18.17548775 -4.04357178 14.7534908 -4.04310608 11.33143616 C-4.04670135 10.3064502 -4.05029663 9.28146423 -4.05400085 8.22541809 C-4.05262619 7.29848648 -4.05125153 6.37155487 -4.04983521 5.41653442 C-4.050757 4.60627839 -4.05167879 3.79602236 -4.05262852 2.96121311 C-3.84405643 -0.15930169 -3.16818557 0.13004886 0 0 Z " fill="#007F80" transform="translate(620.9295806884766,257.87974548339844)"/>
<path d="M0 0 C0.33 0 0.66 0 1 0 C1 35.97 1 71.94 1 109 C0.67 109 0.34 109 0 109 C0 73.03 0 37.06 0 0 Z " fill="#007F80" transform="translate(711,260)"/>
<path d="M0 0 C0.33 0 0.66 0 1 0 C1 35.97 1 71.94 1 109 C0.67 109 0.34 109 0 109 C0 73.03 0 37.06 0 0 Z " fill="#007F80" transform="translate(645,76)"/>
<path d="M0 0 C0.33 0 0.66 0 1 0 C1 35.31 1 70.62 1 107 C0.67 107 0.34 107 0 107 C0 71.69 0 36.38 0 0 Z " fill="#007F80" transform="translate(798,262)"/>
<path d="M0 0 C0.33 0 0.66 0 1 0 C1 25.08 1 50.16 1 76 C0.67 76 0.34 76 0 76 C0 50.92 0 25.84 0 0 Z " fill="#007F80" transform="translate(946,76)"/>
<path d="M0 0 C16.17 0 32.34 0 49 0 C49 0.33 49 0.66 49 1 C32.83 1 16.66 1 0 1 C0 0.67 0 0.34 0 0 Z " fill="#007F80" transform="translate(647,74)"/>
<path d="M0 0 C14.52 0 29.04 0 44 0 C44 0.33 44 0.66 44 1 C29.48 1 14.96 1 0 1 C0 0.67 0 0.34 0 0 Z " fill="#007F80" transform="translate(1225,126)"/>
<path d="M0 0 C9.24 0 18.48 0 28 0 C28 0.33 28 0.66 28 1 C18.76 1 9.52 1 0 1 C0 0.67 0 0.34 0 0 Z " fill="#007F80" transform="translate(766,74)"/>
<path d="M0 0 C7.92 0 15.84 0 24 0 C24 0.33 24 0.66 24 1 C16.08 1 8.16 1 0 1 C0 0.67 0 0.34 0 0 Z " fill="#007F80" transform="translate(769,142)"/>
<path d="M0 0 C7.92 0 15.84 0 24 0 C24 0.33 24 0.66 24 1 C16.08 1 8.16 1 0 1 C0 0.67 0 0.34 0 0 Z " fill="#007F80" transform="translate(831,74)"/>
<path d="M0 0 C6.93 0 13.86 0 21 0 C21 0.33 21 0.66 21 1 C14.07 1 7.14 1 0 1 C0 0.67 0 0.34 0 0 Z " fill="#007F80" transform="translate(713,258)"/>
<path d="M0 0 C6.93 0 13.86 0 21 0 C21 0.33 21 0.66 21 1 C14.07 1 7.14 1 0 1 C0 0.67 0 0.34 0 0 Z " fill="#007F80" transform="translate(1017,74)"/>
<path d="M0 0 C6.93 0 13.86 0 21 0 C21 0.33 21 0.66 21 1 C14.07 1 7.14 1 0 1 C0 0.67 0 0.34 0 0 Z " fill="#007F80" transform="translate(948,74)"/>
<path d="M0 0 C6.93 0 13.86 0 21 0 C21 0.33 21 0.66 21 1 C14.07 1 7.14 1 0 1 C0 0.67 0 0.34 0 0 Z " fill="#007F80" transform="translate(910,74)"/>
<path d="M0 0 C6.6 0 13.2 0 20 0 C20 0.33 20 0.66 20 1 C13.4 1 6.8 1 0 1 C0 0.67 0 0.34 0 0 Z " fill="#007F80" transform="translate(801,258)"/>
<path d="M0 0 C6.6 0 13.2 0 20 0 C20 0.33 20 0.66 20 1 C13.4 1 6.8 1 0 1 C0 0.67 0 0.34 0 0 Z " fill="#007F80" transform="translate(1130,74)"/>
<path d="M0 0 C6.6 0 13.2 0 20 0 C20 0.33 20 0.66 20 1 C13.4 1 6.8 1 0 1 C0 0.67 0 0.34 0 0 Z " fill="#007F80" transform="translate(605,74)"/>
<path d="M0 0 C5.94 0 11.88 0 18 0 C18 0.33 18 0.66 18 1 C12.06 1 6.12 1 0 1 C0 0.67 0 0.34 0 0 Z " fill="#007F80" transform="translate(1060,74)"/>
<path d="M0 0 C0.33 0 0.66 0 1 0 C1 4.95 1 9.9 1 15 C0.67 15 0.34 15 0 15 C0 10.05 0 5.1 0 0 Z " fill="#007F80" transform="translate(1223,128)"/>
<path d="" fill="#004041" transform="translate(0,0)"/>
<path d="M0 0 C2 1 2 1 2 1 Z " fill="#007F80" transform="translate(384,0)"/>
<path d="" fill="#007F80" transform="translate(0,0)"/>
<path d="" fill="#007F80" transform="translate(0,0)"/>
<path d="" fill="#007F80" transform="translate(0,0)"/>
<path d="" fill="#007F80" transform="translate(0,0)"/>
<path d="" fill="#007F80" transform="translate(0,0)"/>
<path d="" fill="#007F80" transform="translate(0,0)"/>
<path d="" fill="#007F80" transform="translate(0,0)"/>
<path d="" fill="#007F80" transform="translate(0,0)"/>
<path d="" fill="#007F80" transform="translate(0,0)"/>
<path d="" fill="#007F80" transform="translate(0,0)"/>
<path d="" fill="#007F80" transform="translate(0,0)"/>
<path d="" fill="#007F80" transform="translate(0,0)"/>
</svg>
